<?xml version="1.0" encoding="utf-8"?>
<!-- Generator: Adobe Illustrator 25.0.0, SVG Export Plug-In . SVG Version: 6.00 Build 0)  -->
<svg version="1.1" id="图层_1" xmlns="http://www.w3.org/2000/svg" xmlns:xlink="http://www.w3.org/1999/xlink" x="0px" y="0px"
	 viewBox="0 0 1260.4 464" style="enable-background:new 0 0 1260.4 464;" xml:space="preserve">
<style type="text/css">
	.st0{fill:#21107D;stroke:#FFFFFF;stroke-width:0.5;stroke-miterlimit:10;}
	.st1{fill:url(#SVGID_1_);}
	.st2{fill:url(#SVGID_2_);}
	.st3{fill:url(#SVGID_3_);}
	.st4{fill:#21107D;}
	.st5{fill:url(#SVGID_4_);}
</style>
<path class="st0" d="M402.7,269.9l15.1-13.4c3.3,6.8,8.3,10.5,14.2,10.5c9,0,14.8-4.2,18.3-17.3l11.5-43.1l4.6-18.1h20.4l-16.8,63
	c-5,18.7-17.7,34.2-42.3,34.2C417.9,285.7,407.4,281.5,402.7,269.9z"/>
<path class="st0" d="M506.3,228.2l4.3-16.9h20.2l-19.3,72.6h-20.1L506.3,228.2z M513.1,186.8c2-7.8,8.9-13.2,16.9-13.4
	c7.7,0,11.9,5.5,9.8,13.4c-2,7.7-8.9,13.1-16.8,13.2C515.2,199.9,511,194.7,513.1,186.8L513.1,186.8z"/>
<path class="st0" d="M555.9,253.8l6.8-25.6h-17l4.3-16.1l18.2-0.8l8.5-22.2h16.6l-5.9,22.2h28.5l-4.5,16.9h-28.5l-6.8,25.4
	c-2.9,11.1,0.3,15.2,10.2,15.2c4.8-0.1,9.5-1,14-2.6l-0.5,15.6c-6.5,1.9-14.2,3.9-23.2,3.9C555,285.7,550.8,272.9,555.9,253.8z"/>
<path class="st0" d="M627.5,253.8l6.8-25.6h-17l4.3-16.1l18.2-0.8l8.5-22.2h16.6l-5.9,22.2h28.5l-4.5,16.9h-28.6l-6.8,25.4
	c-2.9,11.1,0.3,15.2,10.2,15.2c4.8-0.1,9.5-1,14-2.6l-0.5,15.6c-6.5,1.9-14.2,3.9-23.2,3.9C626.6,285.7,622.4,272.9,627.5,253.8z"/>
<path class="st0" d="M686.3,247.6c6.4-24.2,26.8-38.1,44.7-38.1s30.8,13.9,24.3,38.1s-26.8,38-44.6,38S679.9,271.8,686.3,247.6z
	 M734.8,247.6c3.3-12.6,0.8-20.7-8.4-20.7s-16.1,8.1-19.5,20.7c-3.3,12.6-0.8,20.6,8.5,20.6S731.5,260.2,734.8,247.6L734.8,247.6z"
	/>
<path class="st0" d="M778.9,211.3h16.5l-2.7,15.9h0.5c9.8-11.9,21.3-17.6,32.1-17.6c5.9,0,8.8,1.1,12.2,2.9l-8.9,18.1
	c-3.6-1.5-7.5-2.2-11.4-2.1c-8.4,0-18.2,4.7-27.6,17.7l-10,37.8h-20.1L778.9,211.3z"/>
<linearGradient id="SVGID_1_" gradientUnits="userSpaceOnUse" x1="118.36" y1="307.865" x2="253.69" y2="307.865" gradientTransform="matrix(1 0 0 -1 0 466)">
	<stop  offset="0" style="stop-color:#54F396"/>
	<stop  offset="0.53" style="stop-color:#54F3C5"/>
	<stop  offset="1" style="stop-color:#00DFFF"/>
</linearGradient>
<polygon class="st1" points="253.7,75.6 243.5,137.5 243,140.8 233.7,197.2 232.5,197.7 118.4,240.8 118.4,240.7 118.6,240.4 
	170.5,197.7 202.3,171.5 202.3,171.5 253.4,75.8 253.6,75.5 "/>
<linearGradient id="SVGID_2_" gradientUnits="userSpaceOnUse" x1="124.43" y1="243.765" x2="348.94" y2="243.765" gradientTransform="matrix(1 0 0 -1 0 466)">
	<stop  offset="0" style="stop-color:#00DFFF"/>
	<stop  offset="0.37" style="stop-color:#3A87FF"/>
	<stop  offset="1" style="stop-color:#611EC1"/>
</linearGradient>
<polygon class="st2" points="348.9,200.7 348.7,201.1 348.6,201.1 290.1,222.9 235.6,243.8 124.4,243.8 238.5,200.7 348.9,200.7 
	348.9,200.7 "/>
<linearGradient id="SVGID_3_" gradientUnits="userSpaceOnUse" x1="348.86" y1="265.3" x2="348.94" y2="265.3" gradientTransform="matrix(1 0 0 -1 0 466)">
	<stop  offset="0" style="stop-color:#00DFFF"/>
	<stop  offset="0.37" style="stop-color:#3A87FF"/>
	<stop  offset="1" style="stop-color:#611EC1"/>
</linearGradient>
<polygon class="st3" points="348.9,200.7 348.9,200.7 348.9,200.7 "/>
<g>
	<path class="st4" d="M894.5,261.9l13.7-8c-0.1,4.2,0.4,8.4,1.5,12.5c-19.6,12.1-30.7,19.2-33.4,21.5c-0.6,0.5-1,1-1.4,1.4
		c-0.5-4.4-1.7-8.6-3.6-12.6c-0.1-0.1-0.2-0.1-0.2-0.2c3.6-1.9,6.5-5,8.1-8.8c0.2-0.6,0.4-1.3,0.6-1.9l8.1-34.6H871l3.2-13.6h30.6
		L894.5,261.9z M915.2,200.4l-11.6,10.1c-2.6-4.7-7.4-10.7-14.5-18.2l10.7-8.8C908.1,191.6,913.2,197.2,915.2,200.4z M980.3,218.4
		l-3.3,14.2h-26.4l-13.4,57.1h-14.7l13.4-57.1h-27.6l3.3-14.3h27.6l8.3-35.4h14.7l-8.3,35.4L980.3,218.4z"/>
	<path class="st4" d="M1006,186.8h98.1l-24.1,103h-13.8l1-4.1H996l-1,4.1h-13.1L1006,186.8z M1055,273.7h14.9l8.2-35
		c-2.9,2.7-5.6,5.6-8.1,8.8c-9.2-1.9-18.1-5.3-26.2-10.1c-3.6,1.6-7,3.1-10.2,4.4c9.9,2.2,18,4.9,24.4,8.2l-7.5,8.4
		c-8-4-16.5-7.1-25.3-9.1l-1.2-0.2l5.6-5.9c-6.6,2.4-13.3,4.4-20.1,5.9c-0.4-3.2-1.4-6.4-2.8-9.3l-8,34h54.3
		c-10.5-4.2-23.4-7.3-38.7-9.4c-1.5-0.2-2.9-0.4-4.3-0.6l8.4-8.9c13.9,1.3,27.6,4.2,40.9,8.5l3.4,1.2L1055,273.7z M1041.1,199.1
		h-24.8l-9,38.5c9-1.6,17.8-4,26.3-7.1c-2.4-2-4.6-4.3-6.6-6.7c-2.6,1.8-5.3,3.5-8.2,5.2c-2-2.9-4.4-5.6-7.1-8
		c10.1-5,19.3-11.6,27.3-19.6C1039.8,200.5,1040.5,199.7,1041.1,199.1L1041.1,199.1z M1059.1,217.9h-22c2.5,2.9,5.6,5.4,9,7.3
		C1050.6,223.2,1055,220.7,1059.1,217.9L1059.1,217.9z M1078.5,237l8.9-37.9h-44.7l9,3.5c-1.8,2-3.5,3.8-5,5.3h25.1l2-0.4l6.7,4.6
		c-6,6.7-13.9,13-23.6,18.7C1063.9,233.6,1071.1,235.7,1078.5,237z"/>
</g>
<linearGradient id="SVGID_4_" gradientUnits="userSpaceOnUse" x1="254.01" y1="100.57" x2="254.01" y2="244.13" gradientTransform="matrix(1 0 0 -1 0 466)">
	<stop  offset="0" style="stop-color:#00DFFF"/>
	<stop  offset="0.37" style="stop-color:#3A87FF"/>
	<stop  offset="1" style="stop-color:#611EC1"/>
</linearGradient>
<polygon class="st5" points="292.4,221.9 280.8,243.7 266.9,269.6 215.9,365.1 215.7,365.4 215.6,365.4 235.5,243.7 235.6,243.7 "/>
</svg>
